<svg width="42" height="15" viewBox="0 0 42 15" fill="none" xmlns="http://www.w3.org/2000/svg">
<g clip-path="url(#clip0_95_15)">
<path d="M12.2 11.8C11.8 12.5 11.3 13 10.7 13.5C10.1 13.9 9.5 14.3 8.8 14.5C8.1 14.7 7.4 14.8 6.6 14.8C5.6 14.8 4.7 14.6 3.9 14.3C3.1 14 2.4 13.5 1.8 12.9C1.2 12.3 0.7 11.5 0.4 10.6C0.2 9.6 0 8.6 0 7.4C0 6.3 0.2 5.3 0.5 4.4C0.8 3.5 1.3 2.7 1.9 2C2.5 1.3 3.2 0.8 4.1 0.5C4.9 0.2 5.9 0 6.9 0C7.7 0 8.4 0.1 9 0.2C9.7 0.3 10.3 0.6 10.8 0.8C11.3 1.1 11.8 1.4 12.1 1.7L11.1 6.9H10.7L10.4 4C10.3 3.1 10.1 2.4 9.8 1.9C9.5 1.4 9.2 1 8.6 0.7C8 0.4 7.3 0.3 6.5 0.3C5.9 0.3 5.3 0.5 4.8 0.8C4.3 1.1 3.8 1.6 3.5 2.2C3.2 2.8 2.8 3.5 2.6 4.2C2.4 5 2.3 5.9 2.3 6.8C2.3 7.8 2.4 8.7 2.6 9.5C2.8 10.3 3.2 11.1 3.7 11.7C4.2 12.3 4.8 12.8 5.5 13.2C6.2 13.6 7 13.7 8 13.7C8.8 13.7 9.6 13.5 10.3 13.2C11 12.9 11.6 12.4 12.1 11.7L12.2 11.8Z" fill="#483632"/>
<path d="M19.7001 4.2002C20.5001 4.2002 21.1001 4.3002 21.7001 4.5002C22.3001 4.7002 22.7001 5.0002 23.1001 5.3002C23.5001 5.7002 23.7001 6.1002 23.9001 6.7002C24.1001 7.3002 24.1001 7.9002 24.1001 8.7002V13.8002C24.1001 14.0002 24.1001 14.1002 24.2001 14.2002C24.3001 14.3002 24.4001 14.3002 24.6001 14.3002C24.8001 14.3002 24.9001 14.3002 25.1001 14.2002C25.3001 14.1002 25.5001 14.0002 25.7001 13.8002V14.0002C25.5001 14.1002 25.3001 14.3002 25.1001 14.4002C24.9001 14.5002 24.6001 14.6002 24.4001 14.6002C24.2001 14.7002 23.9001 14.7002 23.7001 14.7002C23.1001 14.7002 22.7001 14.5002 22.3001 14.2002C22.0001 13.9002 21.8001 13.4002 21.8001 12.7002C21.8001 12.4002 21.8001 12.2002 21.8001 12.1002C21.8001 12.0002 21.8001 11.9002 21.8001 11.8002C21.8001 11.7002 21.8001 11.7002 21.8001 11.6002L21.6001 11.5002C21.3001 12.0002 21.0001 12.5002 20.7001 12.9002C20.3001 13.3002 20.0001 13.6002 19.5001 13.9002C19.1001 14.2002 18.6001 14.4002 18.2001 14.5002C17.7001 14.6002 17.3001 14.7002 16.8001 14.7002C16.3001 14.7002 15.9001 14.6002 15.5001 14.4002C15.1001 14.2002 14.8001 14.0002 14.5001 13.7002C14.2001 13.4002 14.1001 13.0002 14.1001 12.5002C14.1001 11.4002 14.7001 10.5002 16.0001 9.9002C17.3001 9.3002 19.2001 9.0002 21.7001 9.0002C21.7001 7.9002 21.6001 7.0002 21.4001 6.3002C21.2001 5.6002 20.9001 5.2002 20.5001 4.9002C20.1001 4.6002 19.5001 4.5002 18.7001 4.5002C18.2001 4.5002 17.8001 4.5002 17.4001 4.6002C17.3001 4.7002 17.0001 4.8002 16.8001 5.0002C16.6001 5.1002 16.5001 5.2002 16.5001 5.3002C16.5001 5.4002 16.6001 5.4002 16.7001 5.5002C16.8001 5.6002 17.1001 5.7002 17.4001 5.8002C18.0001 6.0002 18.3001 6.4002 18.3001 6.8002C18.3001 7.2002 18.1001 7.5002 17.8001 7.7002C17.4001 7.9002 17.0001 8.0002 16.5001 8.0002C16.0001 8.0002 15.6001 7.9002 15.3001 7.7002C15.0001 7.5002 14.8001 7.2002 14.8001 6.8002C14.8001 6.5002 14.9001 6.2002 15.2001 5.9002C15.5001 5.6002 15.8001 5.3002 16.3001 5.0002C16.8001 4.7002 17.3001 4.5002 17.9001 4.4002C18.4001 4.2002 19.0001 4.2002 19.7001 4.2002ZM21.9001 9.3002C20.6001 9.3002 19.6001 9.4002 18.8001 9.7002C18.0001 10.0002 17.4001 10.3002 17.0001 10.8002C16.6001 11.3002 16.4001 11.8002 16.4001 12.4002C16.4001 12.7002 16.5001 13.0002 16.6001 13.3002C16.7001 13.5002 16.9001 13.7002 17.2001 13.8002C17.4001 13.9002 17.7001 14.0002 18.0001 14.0002C18.3001 14.0002 18.7001 13.9002 19.1001 13.8002C19.5001 13.7002 19.9001 13.5002 20.2001 13.2002C20.6001 12.9002 20.9001 12.6002 21.2001 12.2002C21.5001 11.8002 21.8001 11.3002 22.0001 10.8002V9.3002H21.9001Z" fill="#483632"/>
<path d="M26.9999 14.5001V14.3001L28.0999 14.1001V5.1001H26.8999V4.8001L30.2999 4.1001V7.3001L30.4999 7.5001C30.6999 7.0001 30.8999 6.6001 31.0999 6.3001C31.2999 5.9001 31.4999 5.6001 31.6999 5.4001C31.9999 5.0001 32.3999 4.7001 32.6999 4.5001C33.0999 4.3001 33.4999 4.2001 33.8999 4.2001C34.1999 4.2001 34.4999 4.3001 34.7999 4.4001C35.0999 4.5001 35.2999 4.7001 35.3999 4.9001C35.4999 5.1001 35.6999 5.4001 35.6999 5.8001C35.6999 6.1001 35.5999 6.3001 35.4999 6.5001C35.3999 6.7001 35.1999 6.9001 34.8999 7.0001C34.5999 7.1001 34.2999 7.2001 33.9999 7.2001C33.6999 7.2001 33.3999 7.1001 33.0999 7.0001C32.7999 6.9001 32.5999 6.7001 32.4999 6.5001C32.3999 6.3001 32.2999 6.1001 32.2999 5.8001C32.2999 5.7001 32.2999 5.6001 32.2999 5.5001C32.2999 5.4001 32.2999 5.4001 32.2999 5.3001C32.2999 5.2001 32.2999 5.2001 32.2999 5.1001C32.2999 5.0001 32.2999 5.0001 32.1999 5.0001C32.0999 5.0001 31.8999 5.1001 31.6999 5.3001C31.4999 5.5001 31.2999 5.9001 31.0999 6.3001C30.9999 6.6001 30.7999 6.9001 30.6999 7.3001C30.5999 7.7001 30.3999 8.1001 30.2999 8.5001V14.0001L31.3999 14.2001V14.4001H26.9999V14.5001Z" fill="#483632"/>
<path d="M39.5001 14.8002C38.8001 14.8002 38.3001 14.6002 38.0001 14.2002C37.7001 13.8002 37.5001 13.1002 37.5001 12.3002V4.9002H36.1001V4.7002L37.5001 4.5002L39.4001 1.2002H39.7001V4.3002L41.8001 4.6002V4.8002H39.7001V12.8002C39.7001 13.3002 39.8001 13.6002 39.9001 13.8002C40.0001 14.0002 40.2001 14.1002 40.4001 14.1002C40.6001 14.1002 40.9001 14.0002 41.1001 13.8002C41.3001 13.6002 41.5001 13.4002 41.8001 13.2002L41.9001 13.4002C41.8001 13.5002 41.6001 13.7002 41.4001 13.8002C41.2001 13.9002 41.0001 14.1002 40.8001 14.2002C40.6001 14.3002 40.4001 14.4002 40.2001 14.5002C40.0001 14.7002 39.8001 14.8002 39.5001 14.8002Z" fill="#483632"/>
</g>
<defs>
<clipPath id="clip0_95_15">
<rect width="41.9" height="14.8" fill="white"/>
</clipPath>
</defs>
</svg>
