<svg width="170" height="50" viewBox="0 0 170 50" fill="none" xmlns="http://www.w3.org/2000/svg">
<g clip-path="url(#clip0_77_159)">
<path d="M3.61301 44.2287V13.6462C3.61301 13.3765 3.61301 13.1608 3.66614 12.8911H0V12.2978H3.7724C4.62252 5.82526 9.24505 0.0539551 18.7558 0.0539551C20.9873 0.0539551 23.5908 0.431517 26.46 1.18664L24.1753 10.1942H23.7502C23.3251 5.55557 21.4124 0.970891 16.3117 0.970891C10.5734 0.970891 8.23553 6.04101 8.23553 8.63001C8.23553 8.95363 8.1824 12.1899 11.4235 12.2978C11.7954 12.2978 12.1142 12.2438 12.4861 12.2438C13.8144 12.2438 14.8771 12.4596 15.6209 13.1608C16.7899 14.3474 16.5242 15.1025 16.5242 15.2104C16.5242 17.0442 14.9302 18.9321 13.23 21.4132C12.0611 23.0313 11.0515 24.8112 10.6796 26.753V44.0669C10.6796 47.3031 11.0515 49.4067 14.2926 49.4067V49.9461C11.2109 49.7843 9.35131 49.7303 7.54481 49.7303C5.41951 49.7303 3.50674 49.8921 0.0531325 49.9461V49.4067C3.24108 49.4067 3.61301 47.411 3.61301 44.2287ZM10.6265 24.7034C12.2736 20.6581 15.9397 17.5836 15.9397 15.2643C15.9397 15.2104 15.9397 15.1564 15.9397 15.1025C15.8335 13.3226 14.3458 12.8911 12.8581 12.8911H11.3172C11.1047 12.8371 10.839 12.8371 10.6265 12.7832V24.7034Z" fill="white"/>
<path d="M27.5757 8.52208C27.5757 7.49727 27.7882 6.52639 28.3195 5.44765C30.0198 1.94171 33.8453 0.539339 37.7771 0.539339C41.0713 0.539339 45.6407 1.13265 45.6407 5.44765C45.6407 7.82089 43.9936 9.7087 41.6558 9.7087C39.318 9.7087 37.6708 8.14452 37.6708 5.44765C37.6708 3.5059 38.6804 1.94171 40.2212 1.3484C39.4774 1.24053 38.6804 1.18659 37.8834 1.18659C37.7771 1.18659 37.724 1.18659 37.6177 1.18659C34.111 1.18659 30.498 2.37321 28.7977 5.6634C28.3195 6.58033 28.107 7.49727 28.107 8.36027C28.107 8.79177 28.0539 10.1941 29.3822 11.8662C30.7105 13.5383 32.8358 14.617 35.1736 14.617C41.9214 14.617 51.9635 9.81658 57.9143 5.77127C60.4115 4.04527 62.8556 2.10352 65.1935 -0.10791V43.7432C65.2466 47.5188 66.0436 49.2448 69.4972 49.2448V49.7842C67.9563 49.6224 65.4591 49.6224 62.5368 49.6224C59.6677 49.6224 56.5329 49.6224 53.7168 49.7842V49.2448C57.2767 49.2448 58.0206 47.411 58.0206 43.4196V12.9989C57.8612 10.302 57.3299 8.8457 54.6201 8.62995C51.6978 10.356 48.6693 11.7583 45.3751 12.9989V43.905C45.4282 47.6267 46.2252 49.3527 49.6788 49.3527V49.8921C47.5004 49.7303 44.4187 49.6763 41.0713 49.6763C38.7335 49.6763 36.2363 49.7303 33.8984 49.8921V49.3527C37.5115 49.3527 38.2553 47.5188 38.2553 43.5814V22.6537C38.2553 18.0151 38.4147 15.6418 34.7486 15.3721C34.5892 15.3182 33.1015 15.4261 30.9762 14.2394C29.3822 13.3764 28.3727 12.082 27.7351 10.4638C27.6819 9.87052 27.5757 9.22327 27.5757 8.52208Z" fill="white"/>
<path d="M73.4291 49.9461V49.4067C76.989 49.4067 77.6797 47.5728 77.7328 43.5815V10.4639C77.7328 5.82526 77.9453 3.39808 74.2792 3.12839V2.58901C77.414 2.31933 81.8771 1.34845 84.8526 0.0539551V43.9051C84.9057 47.6807 85.7027 49.4067 89.1563 49.4067V49.9461C86.5528 49.7843 83.8962 49.7303 81.2927 49.7303C78.6361 49.7303 76.0326 49.7843 73.4291 49.9461Z" fill="white"/>
<path d="M93.1412 30.7981C93.1412 21.7906 99.0389 12.2437 111.631 12.2437C120.079 12.2437 126.136 16.8823 128.74 23.5705C126.933 23.8402 121.248 24.9189 114.819 26.0516C119.654 26.1056 123.055 27.6158 125.339 29.7194C127.518 31.8229 128.368 34.4659 128.368 36.8391C128.368 37.2706 128.527 38.8887 127.252 41.5317C126.615 42.9341 125.658 44.0667 124.543 45.1455C121.248 48.112 116.998 49.9459 111.525 49.9459C99.5703 49.9459 93.1944 40.5608 93.1944 31.0678C93.1412 31.0139 93.1412 30.906 93.1412 30.7981ZM100.367 30.9599C100.367 34.0883 100.633 38.3494 102.386 42.3407C104.14 46.386 107.009 49.3526 111.631 49.4065C116.891 49.3526 120.983 47.5727 124.117 44.7679C125.924 43.1498 126.933 41.5856 127.305 40.1832C127.571 38.673 127.73 37.6482 127.73 36.8931C127.73 35.4907 127.465 34.1962 126.827 32.8478C124.489 28.1552 119.601 26.8068 114.447 26.8068C109.24 26.8068 103.768 28.1552 100.474 28.7485C100.367 29.4497 100.367 30.2048 100.367 30.9599ZM108.922 26.5371C113.703 25.728 118.485 24.8111 122.258 24.1638C121.089 18.3925 118.167 12.8909 111.525 12.8909C103.449 12.8909 100.792 21.2512 100.367 28.1013C102.971 27.6158 105.893 27.1304 108.922 26.5371Z" fill="white"/>
<path d="M146.221 27.7777C142.873 27.1304 140.642 25.1347 139.951 23.139C139.579 22.1142 139.366 21.1973 139.366 20.3343C139.366 19.687 139.313 17.961 140.854 15.8575C142.395 13.7539 145.052 12.2976 148.824 12.2976C157.803 12.2976 165.242 15.4799 165.933 24.5953C165.986 25.1887 166.039 25.8898 166.039 26.4832V38.9427C166.039 44.2286 165.773 49.2987 169.811 49.2987V49.892C162.267 49.892 159.025 47.8424 159.025 40.7226C157.006 46.5479 152.65 49.892 145.902 49.9459C145.742 49.9459 145.583 49.9459 145.477 49.9459C137.241 49.9459 132.672 45.7928 132.672 38.9427C132.672 31.9848 138.941 29.1261 146.221 27.7777ZM147.602 48.5436C153.925 48.5436 159.025 44.8219 159.025 34.5198V27.6158C152.224 27.6158 139.738 27.5619 139.738 39.4821C139.738 45.0916 142.076 48.5436 147.602 48.5436ZM140.535 23.0851C142.076 26.2674 145.317 27.454 148.611 27.454C151.693 27.0765 154.562 27.0225 157.378 27.0225H159.025C158.866 18.878 156.528 13.0527 148.718 12.8909C144.201 12.8909 139.951 15.426 139.951 20.55C140.004 21.3591 140.163 22.2221 140.535 23.0851Z" fill="white"/>
</g>
<defs>
<clipPath id="clip0_77_159">
<rect width="169.811" height="50" fill="white"/>
</clipPath>
</defs>
</svg>
