<svg width="68" height="18" viewBox="0 0 68 18" fill="none" xmlns="http://www.w3.org/2000/svg">
<g clip-path="url(#clip0_95_28)">
<path d="M0 17.0999V16.8999L1.4 16.5999L7.6 0.899902H9.3L15.4 16.6999L16.8 16.9999V17.1999H10.9V16.9999L12.5 16.6999L7.4 2.9999H7.1L4.2 10.5999C3.9 11.2999 3.7 11.8999 3.6 12.5999C3.5 13.1999 3.4 13.7999 3.4 14.2999C3.4 14.7999 3.5 15.2999 3.7 15.6999C3.9 16.0999 4.2 16.3999 4.6 16.6999C5 16.8999 5.6 16.9999 6.3 16.9999V17.1999H0V17.0999ZM4 10.4999V10.2999L10.4 9.9999V10.4999H4Z" fill="#483632"/>
<path d="M19.4 17.5V1H18V0.8L21.9 0V8.9L22.1 9.1C22.3 8.6 22.6 8.1 22.8 7.7C23.1 7.2 23.4 6.8 23.8 6.5C24.2 6.1 24.6 5.9 25.1 5.7C25.6 5.5 26.1 5.4 26.6 5.4C27.3 5.4 28 5.5 28.5 5.8C29 6.1 29.5 6.5 29.9 7C30.3 7.5 30.5 8.1 30.7 8.8C30.9 9.5 31 10.3 31 11.1C31 12.2 30.9 13.2 30.6 14C30.3 14.8 29.9 15.5 29.4 16C28.9 16.5 28.3 16.9 27.6 17.2C26.9 17.5 26.1 17.6 25.3 17.6C24.8 17.6 24.3 17.5 23.9 17.4C23.4 17.3 23 17.1 22.7 16.9C22.3 16.7 22 16.4 21.7 16.1C21.4 15.8 21.1 15.5 20.9 15.1H20.7L19.9 17.5H19.4ZM25.1 17.1C25.8 17.1 26.4 16.9 26.9 16.4C27.4 15.9 27.8 15.2 28 14.4C28.2 13.6 28.4 12.5 28.4 11.4C28.4 10.3 28.3 9.3 28.1 8.6C27.9 7.8 27.6 7.3 27.2 6.9C26.8 6.5 26.3 6.3 25.6 6.3C25.1 6.3 24.6 6.5 24.2 6.8C23.7 7.1 23.3 7.6 22.9 8.2C22.5 8.8 22.2 9.5 22 10.4V13.1C22 13.8 22.1 14.4 22.3 14.9C22.5 15.4 22.8 15.8 23.1 16.2C23.4 16.5 23.8 16.8 24.1 16.9C24.4 17 24.8 17.1 25.1 17.1Z" fill="#483632"/>
<path d="M39.1 5.2998C40.1 5.2998 40.9 5.3998 41.6 5.6998C42.3 5.9998 43 6.3998 43.5 6.9998C44 7.5998 44.4 8.1998 44.7 8.9998C45 9.7998 45.1 10.5998 45.1 11.4998C45.1 12.3998 45 13.1998 44.7 13.8998C44.4 14.5998 44.1 15.2998 43.5 15.7998C43 16.2998 42.4 16.7998 41.6 17.0998C40.9 17.3998 40 17.4998 39 17.4998C38 17.4998 37.2 17.3998 36.4 17.0998C35.7 16.7998 35 16.3998 34.5 15.7998C34 15.2998 33.6 14.5998 33.4 13.8998C33.1 13.1998 33 12.3998 33 11.4998C33 10.5998 33.1 9.6998 33.4 8.9998C33.7 8.1998 34.1 7.5998 34.6 6.9998C35.1 6.4998 35.7 5.9998 36.5 5.6998C37.3 5.3998 38.1 5.2998 39.1 5.2998ZM39.1 5.5998C38.3 5.5998 37.7 5.8998 37.2 6.3998C36.7 6.8998 36.3 7.5998 36.1 8.4998C35.9 9.3998 35.7 10.3998 35.7 11.4998C35.7 12.2998 35.8 13.0998 35.9 13.7998C36 14.4998 36.2 15.0998 36.5 15.5998C36.8 16.0998 37.1 16.4998 37.6 16.7998C38 17.0998 38.5 17.1998 39.1 17.1998C39.7 17.1998 40.1 17.0998 40.6 16.7998C41.1 16.4998 41.4 16.0998 41.7 15.5998C42 15.0998 42.2 14.4998 42.3 13.7998C42.4 13.0998 42.5 12.2998 42.5 11.4998C42.5 10.5998 42.4 9.8998 42.3 9.0998C42.2 8.3998 42 7.7998 41.7 7.1998C41.3 6.6998 41 6.2998 40.5 5.9998C40.1 5.6998 39.6 5.5998 39.1 5.5998Z" fill="#483632"/>
<path d="M51.0999 17.4998C49.9999 17.4998 49.1999 17.1998 48.5999 16.4998C47.9999 15.7998 47.7999 14.7998 47.7999 13.3998V6.2998H46.3999V6.0998L50.3999 5.2998V13.7998C50.3999 14.6998 50.5999 15.3998 50.8999 15.8998C51.1999 16.3998 51.6999 16.5998 52.2999 16.5998C52.7999 16.5998 53.2999 16.3998 53.7999 16.0998C54.2999 15.6998 54.7999 15.1998 55.2999 14.5998C55.7999 13.9998 56.0999 13.2998 56.4999 12.4998V6.2998H55.0999V6.0998L58.9999 5.2998V16.4998H60.3999V16.7998L56.4999 17.5998V13.7998L56.2999 13.6998C55.5999 14.9998 54.8999 15.9998 53.9999 16.5998C53.0999 17.1998 52.0999 17.4998 51.0999 17.4998Z" fill="#483632"/>
<path d="M65.2 17.4999C64.4 17.4999 63.8001 17.2999 63.4001 16.7999C63.0001 16.2999 62.9001 15.5999 62.9001 14.5999V6.0999H61.3V5.8999L63 5.6999L65.2 1.8999H65.5V5.4999L68 5.8999V6.0999H65.5V15.2999C65.5 15.7999 65.6 16.1999 65.7 16.3999C65.8 16.5999 66.1001 16.6999 66.3001 16.6999C66.6001 16.6999 66.8 16.5999 67.1 16.3999C67.4 16.1999 67.6001 15.9999 67.9001 15.6999L68 15.9999C67.8 16.1999 67.7 16.2999 67.5 16.4999C67.3 16.6999 67.1001 16.7999 66.8001 16.8999C66.6001 16.9999 66.3 17.0999 66.1 17.1999C65.9 17.2999 65.4 17.4999 65.2 17.4999Z" fill="#483632"/>
</g>
<defs>
<clipPath id="clip0_95_28">
<rect width="67.9" height="17.5" fill="white"/>
</clipPath>
</defs>
</svg>
