<svg width="102" height="17" viewBox="0 0 102 17" fill="none" xmlns="http://www.w3.org/2000/svg">
<g clip-path="url(#clip0_95_36)">
<path d="M4.7 16.3V16.1L6.1 15.8V0.3H3.9C3.5 0.3 3.1 0.4 2.8 0.6C2.5 0.8 2.2 1.1 2 1.5C1.8 1.9 1.6 2.4 1.5 3.1L1 6.1H0.7L0 0H14.9L14.2 6.1H13.8L13.3 3.2C13.2 2.5 13.1 1.9 12.9 1.5C12.7 1.1 12.4 0.8 12.1 0.6C11.8 0.4 11.4 0.3 11 0.3H8.8V15.7L10.2 16V16.2H4.7V16.3Z" fill="#483632"/>
<path d="M22.4 4.3999C23.6 4.3999 24.6 4.5999 25.4 5.0999C26.2 5.5999 26.8001 6.2999 27.2001 7.0999C27.7001 7.9999 27.9 8.9999 27.9 9.9999H18.8V9.7999L25.5 9.4999C25.5 8.4999 25.4001 7.5999 25.2001 6.8999C25.0001 6.1999 24.6001 5.5999 24.2001 5.2999C23.7001 4.8999 23.2 4.6999 22.5 4.6999C21.8 4.6999 21.2 4.8999 20.6 5.2999C20.1 5.6999 19.6 6.2999 19.4 7.1999C19.2 8.0999 19 9.0999 19 10.2999C19 10.9999 19.1 11.6999 19.3 12.3999C19.5 13.0999 19.8001 13.5999 20.2001 14.0999C20.6001 14.5999 21 14.9999 21.6 15.2999C22.1 15.5999 22.7 15.6999 23.4 15.6999C23.9 15.6999 24.3 15.5999 24.8 15.4999C25.2 15.3999 25.7 15.1999 26 14.9999C26.4 14.7999 26.7 14.4999 27 14.0999C27.3 13.7999 27.6 13.3999 27.8 12.8999L28 13.0999C27.7 13.7999 27.3 14.2999 26.8 14.7999C26.4 15.1999 25.9 15.5999 25.4 15.8999C24.9 16.1999 24.4 16.2999 23.8 16.4999C23.3 16.5999 22.7001 16.6999 22.2001 16.6999C21.3001 16.6999 20.5001 16.4999 19.7001 16.1999C19.0001 15.8999 18.4 15.3999 17.9 14.8999C17.4 14.3999 17.0001 13.6999 16.7001 12.9999C16.4001 12.2999 16.3 11.4999 16.3 10.6999C16.3 9.7999 16.5 8.8999 16.8 8.1999C17.1 7.3999 17.5 6.7999 18.1 6.1999C18.6 5.5999 19.3 5.1999 20 4.8999C20.7 4.5999 21.5 4.3999 22.4 4.3999Z" fill="#483632"/>
<path d="M36.4001 4.3999C37.3001 4.3999 38.1001 4.4999 38.7001 4.6999C39.3001 4.8999 39.9001 5.1999 40.3001 5.6999C40.7001 6.0999 41.0001 6.6999 41.2001 7.2999C41.4001 7.9999 41.5001 8.6999 41.5001 9.5999V15.3999C41.5001 15.5999 41.5001 15.7999 41.6001 15.8999C41.7001 15.9999 41.8001 16.0999 42.0001 16.0999C42.2001 16.0999 42.4001 15.9999 42.6001 15.8999C42.8001 15.7999 43.1001 15.6999 43.3001 15.4999V15.7999C43.1001 15.9999 42.9001 16.0999 42.6001 16.1999C42.3001 16.2999 42.1001 16.3999 41.8001 16.4999C41.5001 16.5999 41.3001 16.5999 41.0001 16.5999C40.3001 16.5999 39.8001 16.3999 39.4001 16.0999C39.0001 15.6999 38.8001 15.1999 38.8001 14.2999C38.8001 13.9999 38.8001 13.7999 38.8001 13.5999C38.8001 13.3999 38.8001 13.2999 38.8001 13.2999C38.8001 13.2999 38.8001 13.0999 38.8001 12.9999L38.6001 12.8999C38.3001 13.4999 38.0001 13.9999 37.6001 14.4999C37.2001 14.9999 36.7001 15.2999 36.2001 15.6999C35.7001 16.0999 35.2001 16.2999 34.7001 16.3999C34.2001 16.5999 33.7001 16.6999 33.1001 16.6999C32.5001 16.6999 32.0001 16.5999 31.6001 16.3999C31.1001 16.1999 30.8001 15.8999 30.5001 15.4999C30.2001 15.0999 30.1001 14.6999 30.1001 14.0999C30.1001 12.7999 30.8001 11.7999 32.3001 11.0999C33.8001 10.3999 36.0001 10.0999 38.8001 10.0999C38.8001 8.7999 38.7001 7.7999 38.5001 6.9999C38.3001 6.1999 38.0001 5.6999 37.5001 5.3999C37.0001 5.0999 36.3001 4.8999 35.5001 4.8999C34.9001 4.8999 34.4001 4.9999 34.0001 4.9999C33.6001 5.0999 33.2001 5.1999 33.0001 5.3999C32.8001 5.4999 32.6001 5.6999 32.6001 5.7999C32.6001 5.8999 32.7001 5.9999 32.8001 5.9999C32.9001 6.0999 33.2001 6.1999 33.6001 6.3999C34.3001 6.6999 34.7001 7.0999 34.7001 7.5999C34.7001 8.0999 34.5001 8.3999 34.1001 8.5999C33.7001 8.7999 33.2001 8.9999 32.7001 8.9999C32.1001 8.9999 31.7001 8.8999 31.3001 8.5999C30.9001 8.3999 30.7001 7.9999 30.7001 7.4999C30.7001 7.0999 30.9001 6.7999 31.2001 6.3999C31.5001 5.9999 31.9001 5.6999 32.5001 5.3999C33.0001 5.0999 33.6001 4.8999 34.3001 4.6999C34.9001 4.4999 35.6001 4.3999 36.4001 4.3999ZM38.9001 10.3999C37.4001 10.3999 36.2001 10.5999 35.3001 10.8999C34.3001 11.1999 33.6001 11.5999 33.2001 12.1999C32.7001 12.6999 32.5001 13.2999 32.5001 13.9999C32.5001 14.3999 32.6001 14.6999 32.7001 14.9999C32.8001 15.2999 33.1001 15.3999 33.4001 15.5999C33.7001 15.6999 34.0001 15.7999 34.3001 15.7999C34.7001 15.7999 35.1001 15.6999 35.5001 15.5999C35.9001 15.4999 36.4001 15.1999 36.8001 14.8999C37.2001 14.5999 37.6001 14.1999 38.0001 13.6999C38.4001 13.1999 38.6001 12.6999 38.9001 11.9999V10.3999Z" fill="#483632"/>
<path d="M48.5001 16.2998L44.0001 5.1998L42.6001 4.9998V4.7998H48.2001V4.9998L46.8001 5.1998L50.4001 14.0998H50.7001L52.6001 8.6998C52.7001 8.4998 52.7001 8.2998 52.8001 7.9998C52.8001 7.6998 52.8001 7.4998 52.8001 7.1998C52.8001 6.8998 52.8001 6.6998 52.7001 6.3998C52.6001 6.0998 52.5001 5.8998 52.3001 5.6998C52.1001 5.4998 51.9001 5.2998 51.6001 5.1998C51.3001 5.0998 50.9001 4.9998 50.5001 4.9998V4.7998H55.6001V4.9998L54.2001 5.1998L50.1001 16.1998H48.5001V16.2998ZM53.7001 5.9998L57.0001 14.1998H57.3001L59.2001 8.7998C59.3001 8.5998 59.3001 8.3998 59.4001 8.0998C59.4001 7.7998 59.4001 7.5998 59.4001 7.2998C59.4001 6.9998 59.4001 6.7998 59.3001 6.4998C59.2001 6.1998 59.1001 5.9998 58.9001 5.7998C58.7001 5.5998 58.5001 5.3998 58.2001 5.2998C58.0001 5.0998 57.6001 4.9998 57.2001 4.9998V4.7998H62.3001V4.9998L60.8001 5.1998L56.7001 16.1998H55.1001L52.3001 9.2998L53.7001 5.9998Z" fill="#483632"/>
<path d="M69.3 4.3999C70.5 4.3999 71.5 4.5999 72.3 5.0999C73.1 5.5999 73.6999 6.2999 74.0999 7.0999C74.5999 7.9999 74.8 8.9999 74.8 9.9999H65.6999V9.7999L72.4 9.4999C72.4 8.4999 72.2999 7.5999 72.0999 6.8999C71.8999 6.1999 71.4999 5.5999 71.0999 5.2999C70.5999 4.8999 70.1 4.6999 69.4 4.6999C68.7 4.6999 68.1 4.8999 67.5 5.2999C67 5.6999 66.5 6.2999 66.3 7.1999C66.1 8.0999 65.9 9.0999 65.9 10.2999C65.9 10.9999 65.9999 11.6999 66.1999 12.3999C66.3999 13.0999 66.6999 13.5999 67.0999 14.0999C67.4999 14.5999 67.9 14.9999 68.5 15.2999C69 15.5999 69.6 15.6999 70.3 15.6999C70.8 15.6999 71.1999 15.5999 71.6999 15.4999C72.0999 15.3999 72.6 15.1999 72.9 14.9999C73.3 14.7999 73.6 14.4999 73.9 14.0999C74.2 13.7999 74.4999 13.3999 74.6999 12.8999L74.9 13.0999C74.6 13.7999 74.1999 14.2999 73.6999 14.7999C73.2999 15.1999 72.8 15.5999 72.3 15.8999C71.8 16.1999 71.2999 16.2999 70.6999 16.4999C70.1999 16.5999 69.5999 16.6999 69.0999 16.6999C68.1999 16.6999 67.3999 16.4999 66.5999 16.1999C65.8999 15.8999 65.3 15.3999 64.8 14.8999C64.3 14.3999 63.8999 13.6999 63.5999 12.9999C63.2999 12.2999 63.2 11.4999 63.2 10.6999C63.2 9.7999 63.4 8.8999 63.7 8.1999C64 7.3999 64.4 6.7999 65 6.1999C65.5 5.5999 66.2 5.1999 66.9 4.8999C67.6 4.5999 68.4 4.3999 69.3 4.3999Z" fill="#483632"/>
<path d="M83.3 4.3999C84.2 4.3999 85 4.4999 85.6 4.6999C86.2 4.8999 86.8 5.1999 87.2 5.6999C87.6 6.0999 87.9 6.6999 88.1 7.2999C88.3 7.9999 88.4 8.6999 88.4 9.5999V15.3999C88.4 15.5999 88.4 15.7999 88.5 15.8999C88.6 15.9999 88.7 16.0999 88.9 16.0999C89.1 16.0999 89.3 15.9999 89.5 15.8999C89.7 15.7999 90 15.6999 90.2 15.4999V15.7999C90 15.9999 89.8 16.0999 89.5 16.1999C89.2 16.2999 89 16.3999 88.7 16.4999C88.4 16.5999 88.2 16.5999 87.9 16.5999C87.2 16.5999 86.7 16.3999 86.3 16.0999C85.9 15.6999 85.7 15.1999 85.7 14.2999C85.7 13.9999 85.7 13.7999 85.7 13.5999C85.7 13.3999 85.7 13.2999 85.7 13.2999C85.7 13.2999 85.7 13.0999 85.7 12.9999L85.5 12.8999C85.2 13.4999 84.9 13.9999 84.5 14.4999C84.1 14.9999 83.6 15.2999 83.1 15.6999C82.6 16.0999 82.1 16.2999 81.6 16.3999C81.1 16.5999 80.6 16.6999 80 16.6999C79.4 16.6999 78.9 16.5999 78.5 16.3999C78 16.1999 77.7 15.8999 77.4 15.4999C77.1 15.0999 77 14.6999 77 14.0999C77 12.7999 77.7 11.7999 79.2 11.0999C80.7 10.3999 82.9 10.0999 85.7 10.0999C85.7 8.7999 85.6 7.7999 85.4 6.9999C85.2 6.1999 84.9 5.6999 84.4 5.3999C83.9 5.0999 83.2 4.8999 82.4 4.8999C81.8 4.8999 81.3 4.9999 80.9 4.9999C80.5 5.0999 80.1 5.1999 79.9 5.3999C79.7 5.4999 79.5 5.6999 79.5 5.7999C79.5 5.8999 79.6 5.9999 79.7 5.9999C79.8 6.0999 80.1 6.1999 80.5 6.3999C81.2 6.6999 81.6 7.0999 81.6 7.5999C81.6 8.0999 81.4 8.3999 81 8.5999C80.6 8.7999 80.1 8.9999 79.6 8.9999C79 8.9999 78.6 8.8999 78.2 8.5999C77.8 8.3999 77.6 7.9999 77.6 7.4999C77.6 7.0999 77.8 6.7999 78.1 6.3999C78.4 5.9999 78.8 5.6999 79.4 5.3999C79.9 5.0999 80.5 4.8999 81.2 4.6999C81.8 4.4999 82.5 4.3999 83.3 4.3999ZM85.8 10.3999C84.3 10.3999 83.1 10.5999 82.2 10.8999C81.2 11.1999 80.5 11.5999 80.1 12.1999C79.6 12.6999 79.4 13.2999 79.4 13.9999C79.4 14.3999 79.5 14.6999 79.6 14.9999C79.7 15.2999 80 15.3999 80.3 15.5999C80.6 15.6999 80.9 15.7999 81.2 15.7999C81.6 15.7999 82 15.6999 82.4 15.5999C82.8 15.4999 83.3 15.1999 83.7 14.8999C84.1 14.5999 84.5 14.1999 84.9 13.6999C85.3 13.1999 85.5 12.6999 85.8 11.9999V10.3999Z" fill="#483632"/>
<path d="M91.7001 16.2999V16.0999L93.0001 15.7999V5.4999H91.6001V5.1999L95.5001 4.3999V8.0999L95.7001 8.2999C95.9001 7.7999 96.2001 7.2999 96.4001 6.8999C96.6001 6.4999 96.8001 6.0999 97.0001 5.8999C97.4001 5.3999 97.8001 5.0999 98.2001 4.7999C98.6001 4.5999 99.1001 4.4999 99.6001 4.4999C100 4.4999 100.3 4.5999 100.6 4.6999C100.9 4.7999 101.1 4.9999 101.3 5.2999C101.5 5.5999 101.6 5.8999 101.6 6.2999C101.6 6.5999 101.5 6.8999 101.4 7.1999C101.3 7.4999 101 7.6999 100.7 7.7999C100.4 7.8999 100 7.9999 99.6001 7.9999C99.2001 7.9999 98.9001 7.8999 98.6001 7.7999C98.3001 7.6999 98.1001 7.4999 97.9001 7.2999C97.7001 7.0999 97.7001 6.7999 97.7001 6.4999C97.7001 6.3999 97.7001 6.2999 97.7001 6.1999C97.7001 6.0999 97.7001 5.9999 97.8001 5.8999C97.8001 5.7999 97.8001 5.7999 97.8001 5.6999C97.8001 5.5999 97.8001 5.4999 97.7001 5.4999C97.5001 5.4999 97.4001 5.5999 97.2001 5.8999C97.0001 6.1999 96.8001 6.5999 96.5001 7.0999C96.3001 7.3999 96.2001 7.7999 96.0001 8.1999C95.8001 8.5999 95.7001 9.0999 95.5001 9.4999V15.6999L96.8001 15.9999V16.1999H91.7001V16.2999Z" fill="#483632"/>
</g>
<defs>
<clipPath id="clip0_95_36">
<rect width="101.6" height="16.6" fill="white"/>
</clipPath>
</defs>
</svg>
