<svg width="44" height="17" viewBox="0 0 44 17" fill="none" xmlns="http://www.w3.org/2000/svg">
<g clip-path="url(#clip0_95_22)">
<path d="M4.7 16.3V16.1L6.1 15.8V0.3H3.9C3.5 0.3 3.1 0.4 2.8 0.6C2.5 0.8 2.2 1.1 2 1.5C1.8 1.9 1.6 2.4 1.5 3.1L1 6.1H0.7L0 0H14.9L14.2 6.1H13.8L13.3 3.2C13.2 2.5 13.1 1.9 12.9 1.5C12.7 1.1 12.4 0.8 12.1 0.6C11.8 0.4 11.4 0.3 11 0.3H8.8V15.7L10.2 16V16.2H4.7V16.3Z" fill="#483632"/>
<path d="M22.4 4.3999C23.6 4.3999 24.6 4.5999 25.4 5.0999C26.2 5.5999 26.8001 6.2999 27.2001 7.0999C27.7001 7.9999 27.9 8.9999 27.9 9.9999H18.8V9.7999L25.5 9.4999C25.5 8.4999 25.4001 7.5999 25.2001 6.8999C25.0001 6.1999 24.6001 5.5999 24.2001 5.2999C23.7001 4.8999 23.2 4.6999 22.5 4.6999C21.8 4.6999 21.2 4.8999 20.6 5.2999C20.1 5.6999 19.6 6.2999 19.4 7.1999C19.2 8.0999 19 9.0999 19 10.2999C19 10.9999 19.1 11.6999 19.3 12.3999C19.5 13.0999 19.8001 13.5999 20.2001 14.0999C20.6001 14.5999 21 14.9999 21.6 15.2999C22.1 15.5999 22.7 15.6999 23.4 15.6999C23.9 15.6999 24.3 15.5999 24.8 15.4999C25.2 15.3999 25.7 15.1999 26 14.9999C26.4 14.7999 26.7 14.4999 27 14.0999C27.3 13.7999 27.6 13.3999 27.8 12.8999L28 13.0999C27.7 13.7999 27.3 14.2999 26.8 14.7999C26.4 15.1999 25.9 15.5999 25.4 15.8999C24.9 16.1999 24.4 16.2999 23.8 16.4999C23.3 16.5999 22.7001 16.6999 22.2001 16.6999C21.3001 16.6999 20.5001 16.4999 19.7001 16.1999C19.0001 15.8999 18.4 15.3999 17.9 14.8999C17.4 14.3999 17.0001 13.6999 16.7001 12.9999C16.4001 12.2999 16.3 11.4999 16.3 10.6999C16.3 9.7999 16.5 8.8999 16.8 8.1999C17.1 7.3999 17.5 6.7999 18.1 6.1999C18.6 5.5999 19.3 5.1999 20 4.8999C20.7 4.5999 21.5 4.3999 22.4 4.3999Z" fill="#483632"/>
<path d="M36.4001 4.3999C37.3001 4.3999 38.1001 4.4999 38.7001 4.6999C39.3001 4.8999 39.9001 5.1999 40.3001 5.6999C40.7001 6.0999 41.0001 6.6999 41.2001 7.2999C41.4001 7.9999 41.5001 8.6999 41.5001 9.5999V15.3999C41.5001 15.5999 41.5001 15.7999 41.6001 15.8999C41.7001 15.9999 41.8001 16.0999 42.0001 16.0999C42.2001 16.0999 42.4001 15.9999 42.6001 15.8999C42.8001 15.7999 43.1001 15.6999 43.3001 15.4999V15.7999C43.1001 15.9999 42.9001 16.0999 42.6001 16.1999C42.3001 16.2999 42.1001 16.3999 41.8001 16.4999C41.5001 16.5999 41.3001 16.5999 41.0001 16.5999C40.3001 16.5999 39.8001 16.3999 39.4001 16.0999C39.0001 15.6999 38.8001 15.1999 38.8001 14.2999C38.8001 13.9999 38.8001 13.7999 38.8001 13.5999C38.8001 13.3999 38.8001 13.2999 38.8001 13.2999C38.8001 13.2999 38.8001 13.0999 38.8001 12.9999L38.6001 12.8999C38.3001 13.4999 38.0001 13.9999 37.6001 14.4999C37.2001 14.9999 36.7001 15.2999 36.2001 15.6999C35.7001 16.0999 35.2001 16.2999 34.7001 16.3999C34.2001 16.5999 33.7001 16.6999 33.1001 16.6999C32.5001 16.6999 32.0001 16.5999 31.6001 16.3999C31.1001 16.1999 30.8001 15.8999 30.5001 15.4999C30.2001 15.0999 30.1001 14.6999 30.1001 14.0999C30.1001 12.7999 30.8001 11.7999 32.3001 11.0999C33.8001 10.3999 36.0001 10.0999 38.8001 10.0999C38.8001 8.7999 38.7001 7.7999 38.5001 6.9999C38.3001 6.1999 38.0001 5.6999 37.5001 5.3999C37.0001 5.0999 36.3001 4.8999 35.5001 4.8999C34.9001 4.8999 34.4001 4.9999 34.0001 4.9999C33.6001 5.0999 33.2001 5.1999 33.0001 5.3999C32.8001 5.4999 32.6001 5.6999 32.6001 5.7999C32.6001 5.8999 32.7001 5.9999 32.8001 5.9999C32.9001 6.0999 33.2001 6.1999 33.6001 6.3999C34.3001 6.6999 34.7001 7.0999 34.7001 7.5999C34.7001 8.0999 34.5001 8.3999 34.1001 8.5999C33.7001 8.7999 33.2001 8.9999 32.7001 8.9999C32.1001 8.9999 31.7001 8.8999 31.3001 8.5999C30.9001 8.3999 30.7001 7.9999 30.7001 7.4999C30.7001 7.0999 30.9001 6.7999 31.2001 6.3999C31.5001 5.9999 31.9001 5.6999 32.5001 5.3999C33.0001 5.0999 33.6001 4.8999 34.3001 4.6999C34.9001 4.4999 35.6001 4.3999 36.4001 4.3999ZM38.9001 10.3999C37.4001 10.3999 36.2001 10.5999 35.3001 10.8999C34.3001 11.1999 33.6001 11.5999 33.2001 12.1999C32.7001 12.6999 32.5001 13.2999 32.5001 13.9999C32.5001 14.3999 32.6001 14.6999 32.7001 14.9999C32.8001 15.2999 33.1001 15.3999 33.4001 15.5999C33.7001 15.6999 34.0001 15.7999 34.3001 15.7999C34.7001 15.7999 35.1001 15.6999 35.5001 15.5999C35.9001 15.4999 36.4001 15.1999 36.8001 14.8999C37.2001 14.5999 37.6001 14.1999 38.0001 13.6999C38.4001 13.1999 38.6001 12.6999 38.9001 11.9999V10.3999Z" fill="#483632"/>
</g>
<defs>
<clipPath id="clip0_95_22">
<rect width="43.3" height="16.6" fill="white"/>
</clipPath>
</defs>
</svg>
