<svg width="71" height="22" viewBox="0 0 71 22" fill="none" xmlns="http://www.w3.org/2000/svg">
<g clip-path="url(#clip0_95_46)">
<path d="M0 17.0999V16.8999L1.4 16.6999V1.2999L0 1.0999V0.899902H5.5V1.0999L4 1.2999V16.7999H8.6C9 16.7999 9.3 16.6999 9.5 16.4999C9.8 16.2999 10 15.9999 10.2 15.5999C10.4 15.1999 10.6 14.5999 10.7 13.8999L11.1 10.9999H11.5L12.2 17.1999H0V17.0999Z" fill="#483632"/>
<path d="M14.1 17.1001V16.9001L15.4 16.7001V6.3001H14V6.1001L18 5.3001V16.7001L19.3 16.9001V17.1001H14.1ZM16.5 3.4001C16.1 3.4001 15.7 3.3001 15.4 3.2001C15.1 3.1001 14.9 2.9001 14.7 2.7001C14.5 2.5001 14.4 2.2001 14.4 2.0001C14.4 1.7001 14.5 1.5001 14.7 1.3001C14.9 1.1001 15.1 0.900098 15.4 0.800098C15.7 0.700098 16.1 0.600098 16.5 0.600098C16.9 0.600098 17.3 0.700098 17.6 0.800098C17.9 0.900098 18.1 1.1001 18.3 1.3001C18.5 1.5001 18.6 1.8001 18.6 2.0001C18.6 2.3001 18.5 2.5001 18.3 2.7001C18.1 2.9001 17.9 3.1001 17.6 3.2001C17.2 3.4001 16.9 3.4001 16.5 3.4001Z" fill="#483632"/>
<path d="M28.6 21.7001V21.5001L29.9 21.3001V13.8001L29.7001 13.6001C29.5001 14.1001 29.3 14.6001 29 15.0001C28.7 15.5001 28.4 15.9001 28 16.2001C27.6 16.6001 27.2001 16.8001 26.7001 17.0001C26.2001 17.2001 25.7 17.3001 25.1 17.3001C24.4 17.3001 23.8001 17.2001 23.2001 16.9001C22.7001 16.6001 22.2 16.2001 21.9 15.7001C21.5 15.2001 21.3 14.6001 21.1 13.9001C20.9 13.2001 20.8 12.4001 20.8 11.6001C20.8 10.5001 20.9001 9.5001 21.2001 8.7001C21.5001 7.9001 21.9 7.2001 22.4 6.7001C22.9 6.2001 23.5001 5.8001 24.2001 5.5001C24.9001 5.2001 25.7 5.1001 26.5 5.1001C27 5.1001 27.5 5.2001 27.9 5.3001C28.3 5.4001 28.8 5.6001 29.1 5.8001C29.5 6.0001 29.8 6.3001 30.1 6.6001C30.4 6.9001 30.7 7.2001 30.9 7.5001H31.2001L32 5.1001H32.2001V21.2001L33.5 21.4001V21.6001H28.6V21.7001ZM26.2001 16.4001C26.7001 16.4001 27.1 16.2001 27.6 15.9001C28.1 15.6001 28.5 15.1001 28.9 14.5001C29.3 13.9001 29.6 13.1001 29.9 12.3001V9.7001C29.9 9.0001 29.8 8.4001 29.6 7.9001C29.4 7.4001 29.1 7.0001 28.8 6.7001C28.5 6.4001 28.1 6.1001 27.8 6.0001C27.4 5.8001 27.1 5.8001 26.8 5.8001C26.1 5.8001 25.5 6.0001 25 6.5001C24.5 7.0001 24.1 7.7001 23.9 8.5001C23.6 9.4001 23.5 10.4001 23.5 11.5001C23.5 12.6001 23.6 13.5001 23.8 14.3001C24 15.1001 24.3001 15.6001 24.7001 16.0001C25.1001 16.3001 25.6001 16.4001 26.2001 16.4001Z" fill="#483632"/>
<path d="M39.7 17.4998C38.6 17.4998 37.8 17.1998 37.2 16.4998C36.6 15.7998 36.4 14.7998 36.4 13.3998V6.2998H35V6.0998L39 5.2998V13.7998C39 14.6998 39.2 15.3998 39.5 15.8998C39.8 16.3998 40.3 16.5998 40.9 16.5998C41.4 16.5998 41.9 16.3998 42.4 16.0998C42.9 15.6998 43.4 15.1998 43.9 14.5998C44.4 13.9998 44.7 13.2998 45.1 12.4998V6.2998H43.7V6.0998L47.6 5.2998V16.4998H49V16.7998L45 17.4998V13.6998L44.8 13.5998C44.1 14.8998 43.4 15.8998 42.5 16.4998C41.6 17.0998 40.7 17.4998 39.7 17.4998Z" fill="#483632"/>
<path d="M50.4999 17.1001V16.9001L51.7999 16.7001V6.3001H50.3999V6.1001L54.3999 5.3001V16.7001L55.6999 16.9001V17.1001H50.4999ZM52.8999 3.4001C52.4999 3.4001 52.0999 3.3001 51.7999 3.2001C51.4999 3.1001 51.2999 2.9001 51.0999 2.7001C50.9999 2.5001 50.8999 2.3001 50.8999 2.0001C50.8999 1.7001 50.9999 1.5001 51.1999 1.3001C51.3999 1.1001 51.5999 0.900098 51.8999 0.800098C52.1999 0.700098 52.5999 0.600098 52.9999 0.600098C53.3999 0.600098 53.7999 0.700098 54.0999 0.800098C54.3999 0.900098 54.5999 1.1001 54.7999 1.3001C54.8999 1.5001 54.9999 1.7001 54.9999 2.0001C54.9999 2.3001 54.8999 2.5001 54.6999 2.7001C54.5999 3.0001 54.2999 3.1001 53.9999 3.2001C53.6999 3.4001 53.2999 3.4001 52.8999 3.4001Z" fill="#483632"/>
<path d="M69.0001 0V16.3H70.4001V16.5L66.4001 17.4V13.8L66.2001 13.6C66.0001 14 65.8001 14.5 65.5001 14.9C65.2001 15.4 64.9001 15.8 64.5001 16.1C64.1001 16.4 63.7001 16.8 63.2001 17C62.7001 17.2 62.2001 17.3 61.7001 17.3C60.8001 17.3 60.0001 17 59.3001 16.5C58.6001 16 58.0001 15.3 57.7001 14.4C57.3001 13.5 57.1001 12.5 57.1001 11.4C57.1001 10 57.3001 8.9 57.8001 7.9C58.4001 7.2 59.0001 6.5 59.8001 6C60.6001 5.5 61.4001 5.3 62.4001 5.3C63.1001 5.3 63.7001 5.4 64.3001 5.7C64.9001 6 65.3001 6.2 65.7001 6.6C66.1001 7 66.4001 7.4 66.5001 7.8V1.2H65.1001V0.9L69.0001 0ZM63.4001 6C62.7001 6 62.1001 6.2 61.5001 6.7C61.0001 7.2 60.6001 7.8 60.3001 8.6C60.0001 9.4 59.9001 10.3 59.9001 11.3C59.9001 12.4 60.0001 13.4 60.3001 14.2C60.5001 15 60.9001 15.6 61.3001 16C61.7001 16.4 62.3001 16.6 62.9001 16.6C63.4001 16.6 63.8001 16.5 64.2001 16.3C64.6001 16.1 64.9001 15.8 65.2001 15.4C65.5001 15 65.8001 14.5 66.0001 14C66.2001 13.5 66.4001 12.9 66.6001 12.3V9.7C66.6001 9.2 66.5001 8.7 66.4001 8.3C66.3001 7.9 66.0001 7.4 65.8001 7.1C65.5001 6.8 65.2001 6.5 64.8001 6.3C64.3001 6.1 63.8001 6 63.4001 6Z" fill="#483632"/>
</g>
<defs>
<clipPath id="clip0_95_46">
<rect width="70.5" height="21.7" fill="white"/>
</clipPath>
</defs>
</svg>
