<svg width="55" height="19" viewBox="0 0 55 19" fill="none" xmlns="http://www.w3.org/2000/svg">
<g clip-path="url(#clip0_95_7)">
<path d="M0 14.4002V14.2002L1.2 14.0002V0.600195L0 0.400195V0.200195H4.8V0.400195L3.5 0.600195V14.1002H7.5C7.8 14.1002 8.1 14.0002 8.3 13.8002C8.5 13.6002 8.7 13.4002 8.9 13.0002C9.1 12.6002 9.2 12.1002 9.4 11.5002L9.7 9.0002H10L10.6 14.4002H0Z" fill="#483632"/>
<path d="M17.5 4.1001C18.3 4.1001 19.1 4.2001 19.7 4.5001C20.3 4.8001 20.9 5.1001 21.3 5.6001C21.7 6.1001 22.1 6.6001 22.3 7.3001C22.5 8.0001 22.6 8.7001 22.6 9.5001C22.6 10.3001 22.5 11.0001 22.3 11.6001C22.1 12.2001 21.7 12.8001 21.3 13.3001C20.9 13.8001 20.3 14.1001 19.7 14.4001C19.1 14.7001 18.3 14.8001 17.5 14.8001C16.6 14.8001 15.9 14.7001 15.2 14.4001C14.6 14.1001 14 13.8001 13.6 13.3001C13.2 12.8001 12.8 12.3001 12.6 11.6001C12.4 11.0001 12.3 10.3001 12.3 9.5001C12.3 8.7001 12.4 7.9001 12.7 7.3001C12.9 6.6001 13.3 6.1001 13.7 5.6001C14.1 5.1001 14.7 4.8001 15.3 4.5001C15.9 4.2001 16.6 4.1001 17.5 4.1001ZM17.5 4.4001C16.8 4.4001 16.3 4.6001 15.9 5.1001C15.5 5.6001 15.1 6.1001 14.9 6.9001C14.7 7.7001 14.6 8.6001 14.6 9.5001C14.6 10.2001 14.7 10.9001 14.8 11.5001C14.9 12.1001 15.1 12.6001 15.3 13.1001C15.5 13.6001 15.9 13.9001 16.2 14.1001C16.6 14.3001 17 14.5001 17.5 14.5001C18 14.5001 18.4 14.4001 18.8 14.1001C19.2 13.9001 19.5 13.5001 19.7 13.1001C20 12.7001 20.1 12.1001 20.3 11.5001C20.4 10.9001 20.5 10.2001 20.5 9.5001C20.5 8.8001 20.4 8.1001 20.3 7.4001C20.2 6.8001 20 6.2001 19.8 5.8001C19.6 5.3001 19.3 5.0001 18.9 4.7001C18.4 4.5001 18 4.4001 17.5 4.4001Z" fill="#483632"/>
<path d="M28.7 18.6998C28 18.6998 27.4 18.5998 26.9 18.4998C26.3 18.3998 25.9 18.1998 25.4 17.8998C25 17.6998 24.7 17.3998 24.4 17.0998C24.2 16.7998 24 16.4998 24 16.1998C24 15.8998 24.1 15.6998 24.2 15.3998C24.3 15.1998 24.5 14.9998 24.8 14.8998C25 14.7998 25.3 14.6998 25.6 14.6998C26.1 14.6998 26.5 14.7998 26.8 14.9998C27.1 15.1998 27.2 15.4998 27.2 15.7998C27.2 16.0998 27.1 16.2998 27 16.4998C26.9 16.6998 26.7 16.7998 26.6 16.8998C26.4 16.9998 26.3 17.0998 26.1 17.1998C25.9 17.2998 25.8 17.2998 25.7 17.3998C25.6 17.4998 25.5 17.4998 25.5 17.5998C25.5 17.6998 25.6 17.8998 25.9 17.9998C26.2 18.0998 26.5 18.1998 26.9 18.2998C27.3 18.3998 27.8 18.3998 28.3 18.3998C29.1 18.3998 29.7 18.2998 30.3 18.0998C30.9 17.8998 31.3 17.5998 31.6 17.1998C31.9 16.7998 32.1 16.3998 32.1 15.7998C32.1 15.2998 32 14.8998 31.7 14.5998C31.4 14.2998 31 13.9998 30.5 13.7998C30 13.5998 29.2 13.4998 28.4 13.3998C27.6 13.2998 26.4 13.2998 25.1 13.2998V12.9998L27.7 10.9998H28L26.5 12.1998L26.6 12.3998C27.7 12.3998 28.7 12.3998 29.5 12.4998C30.3 12.5998 31.1 12.6998 31.7 12.8998C32.3 13.0998 32.8 13.2998 33.2 13.4998C33.6 13.6998 33.9 13.9998 34.1 14.3998C34.3 14.7998 34.4 15.0998 34.4 15.4998C34.4 16.1998 34.2 16.7998 33.7 17.2998C33.2 17.7998 32.6 18.0998 31.7 18.2998C30.9 18.5998 29.9 18.6998 28.7 18.6998ZM29.3 11.1998C28.6 11.1998 28 11.0998 27.4 10.9998C26.8 10.8998 26.3 10.5998 25.8 10.3998C25.3 10.0998 25 9.7998 24.7 9.3998C24.4 8.9998 24.3 8.4998 24.3 7.9998C24.3 7.4998 24.4 6.9998 24.7 6.4998C25 5.9998 25.3 5.5998 25.7 5.2998C26.1 4.9998 26.7 4.6998 27.3 4.4998C27.9 4.2998 28.6 4.1998 29.3 4.1998C30 4.1998 30.6 4.2998 31.2 4.4998C31.8 4.6998 32.3 4.8998 32.8 5.2998C33.3 5.5998 33.6 5.9998 33.9 6.4998C34.2 6.9998 34.3 7.4998 34.3 8.0998C34.3 8.5998 34.2 8.9998 34 9.3998C33.8 9.7998 33.5 10.1998 33.1 10.4998C32.7 10.7998 32.2 10.9998 31.5 11.1998C30.9 11.0998 30.1 11.1998 29.3 11.1998ZM29.3 10.8998C29.9 10.8998 30.4 10.7998 30.8 10.4998C31.2 10.2998 31.5 9.8998 31.7 9.4998C31.9 9.0998 32 8.5998 32 7.9998C32 7.2998 31.9 6.6998 31.7 6.0998C31.5 5.4998 31.2 5.0998 30.8 4.7998C30.4 4.4998 29.9 4.2998 29.3 4.2998C28.7 4.2998 28.2 4.4998 27.8 4.7998C27.4 5.0998 27.1 5.5998 26.8 6.0998C26.5 6.5998 26.5 7.2998 26.5 7.9998C26.5 8.5998 26.6 9.0998 26.8 9.4998C27 9.8998 27.3 10.2998 27.8 10.4998C28.2 10.7998 28.7 10.8998 29.3 10.8998ZM31 4.5998L29.9 4.1998C30.2 4.1998 30.5 4.1998 30.8 4.0998C31 3.9998 31.3 3.8998 31.6 3.7998C31.9 3.6998 32.2 3.5998 32.4 3.3998C32.6 3.1998 32.9 3.1998 33.2 3.0998C33.4 2.9998 33.6 2.8998 33.8 2.7998L34.4 4.1998H31V4.5998Z" fill="#483632"/>
<path d="M36.4001 14.4V14.2L37.5 14V5H36.3V4.8L39.7001 4.1V14L40.8 14.2V14.4H36.4001ZM38.5 2.5C38.2 2.5 37.8 2.4 37.6 2.3C37.3 2.2 37.1 2 37 1.9C36.9 1.7 36.8 1.5 36.8 1.3C36.8 1 36.9 0.8 37 0.7C37.1 0.5 37.4 0.4 37.6 0.3C37.8 0.1 38.1 0 38.5 0C38.8 0 39.2001 0.1 39.4001 0.2C39.7001 0.3 39.9 0.5 40 0.6C40.1 0.7 40.2001 1 40.2001 1.2C40.2001 1.4 40.1 1.7 40 1.8C39.8 2 39.6001 2.1 39.4001 2.2C39.1001 2.4 38.8 2.5 38.5 2.5Z" fill="#483632"/>
<path d="M54.5999 14.2001V14.4001H49.9999V14.2001L51.0999 14.0001V7.3001C51.0999 6.5001 50.9999 5.9001 50.6999 5.5001C50.3999 5.1001 49.9999 4.9001 49.4999 4.9001C49.0999 4.9001 48.7999 5.0001 48.3999 5.2001C47.9999 5.4001 47.6999 5.7001 47.3999 6.1001C47.0999 6.5001 46.7999 6.8001 46.4999 7.3001C46.1999 7.7001 45.9999 8.1001 45.7999 8.5001V14.0001L46.8999 14.2001V14.4001H42.4999V14.2001L43.5999 14.0001V5.0001H42.3999V4.8001L45.7999 4.1001V7.4001L45.9999 7.5001C46.3999 6.8001 46.7999 6.2001 47.1999 5.7001C47.5999 5.2001 48.0999 4.8001 48.6999 4.5001C49.1999 4.2001 49.7999 4.1001 50.3999 4.1001C50.8999 4.1001 51.3999 4.2001 51.6999 4.4001C52.0999 4.6001 52.3999 4.8001 52.5999 5.1001C52.7999 5.4001 52.9999 5.8001 53.0999 6.2001C53.1999 6.6001 53.2999 7.1001 53.2999 7.7001V14.0001L54.5999 14.2001Z" fill="#483632"/>
</g>
<defs>
<clipPath id="clip0_95_7">
<rect width="54.6" height="18.7" fill="white"/>
</clipPath>
</defs>
</svg>
