<svg width="136" height="40" viewBox="0 0 136 40" fill="none" xmlns="http://www.w3.org/2000/svg">
<g clip-path="url(#clip0_19_212)">
<path d="M2.89041 35.3828V10.9168C2.89041 10.701 2.89041 10.5284 2.93291 10.3127H0V9.83801H3.01792C3.69802 4.66001 7.39604 0.0429688 15.0046 0.0429688C16.7899 0.0429688 18.8726 0.345018 21.168 0.949118L19.3402 8.15516H19.0002C18.6601 4.44426 17.1299 0.776518 13.0493 0.776518C8.45869 0.776518 6.58842 4.83261 6.58842 6.90381C6.58842 7.16271 6.54592 9.75171 9.13878 9.83801C9.43632 9.83801 9.69136 9.79486 9.9889 9.79486C11.0515 9.79486 11.9017 9.96746 12.4968 10.5284C13.4319 11.4777 13.2194 12.0818 13.2194 12.1681C13.2194 13.6352 11.9442 15.1455 10.584 17.1304C9.64885 18.4248 8.84124 19.8488 8.5437 21.4022V35.2533C8.5437 37.8423 8.84124 39.5252 11.4341 39.5252V39.9567C8.96876 39.8272 7.48105 39.7841 6.03585 39.7841C4.33561 39.7841 2.80539 39.9135 0.042506 39.9567V39.5252C2.59286 39.5252 2.89041 37.9286 2.89041 35.3828ZM8.50119 19.7625C9.81888 16.5263 12.7518 14.0667 12.7518 12.2113C12.7518 12.1681 12.7518 12.125 12.7518 12.0818C12.6668 10.6579 11.4766 10.3127 10.2864 10.3127H9.05377C8.88375 10.2695 8.67122 10.2695 8.50119 10.2264V19.7625Z" fill="#A58276"/>
<path d="M22.0605 6.81757C22.0605 5.99772 22.2306 5.22102 22.6556 4.35802C24.0158 1.55327 27.0762 0.431374 30.2217 0.431374C32.8571 0.431374 36.5126 0.906023 36.5126 4.35802C36.5126 6.25662 35.1949 7.76687 33.3246 7.76687C31.4544 7.76687 30.1367 6.51552 30.1367 4.35802C30.1367 2.80462 30.9443 1.55327 32.177 1.07862C31.5819 0.992323 30.9443 0.949173 30.3067 0.949173C30.2217 0.949173 30.1792 0.949173 30.0942 0.949173C27.2888 0.949173 24.3984 1.89847 23.0382 4.53062C22.6556 5.26417 22.4856 5.99772 22.4856 6.68812C22.4856 7.03332 22.4431 8.15521 23.5057 9.49286C24.5684 10.8305 26.2686 11.6935 28.1389 11.6935C33.5372 11.6935 41.5708 7.85316 46.3314 4.61692C48.3292 3.23612 50.2845 1.68272 52.1548 -0.0864258V34.9945C52.1973 38.015 52.8349 39.3958 55.5978 39.3958V39.8273C54.3651 39.6978 52.3673 39.6978 50.0295 39.6978C47.7341 39.6978 45.2263 39.6978 42.9735 39.8273V39.3958C45.8214 39.3958 46.4165 37.9287 46.4165 34.7356V10.399C46.2889 8.24152 45.8639 7.07647 43.6961 6.90387C41.3583 8.28466 38.9354 9.40656 36.3 10.399V35.1239C36.3426 38.1013 36.9801 39.4821 39.743 39.4821V39.9136C38.0003 39.7841 35.5349 39.741 32.8571 39.741C30.9868 39.741 28.989 39.7841 27.1188 39.9136V39.4821C30.0092 39.4821 30.6042 38.015 30.6042 34.865V18.1229C30.6042 14.412 30.7318 12.5134 27.7989 12.2976C27.6713 12.2545 26.4812 12.3408 24.7809 11.3915C23.5057 10.7011 22.6981 9.66546 22.1881 8.37096C22.1456 7.89631 22.0605 7.37852 22.0605 6.81757Z" fill="#A58276"/>
<path d="M58.7432 39.9567V39.5252C61.5911 39.5252 62.1436 38.0581 62.1861 34.865V8.37091C62.1861 4.66001 62.3562 2.71827 59.4233 2.50252V2.07102C61.9311 1.85527 65.5016 1.07857 67.8819 0.0429688V35.1239C67.9245 38.1444 68.562 39.5252 71.3249 39.5252V39.9567C69.2421 39.8272 67.1168 39.7841 65.034 39.7841C62.9087 39.7841 60.826 39.8272 58.7432 39.9567Z" fill="#A58276"/>
<path d="M74.5129 24.6385C74.5129 17.4325 79.2311 9.79492 89.305 9.79492C96.0635 9.79492 100.909 13.5058 102.992 18.8564C101.547 19.0722 96.9986 19.9352 91.8554 20.8413C95.7234 20.8845 98.4438 22.0927 100.272 23.7755C102.014 25.4584 102.694 27.5727 102.694 29.4713C102.694 29.8165 102.822 31.111 101.802 33.2253C101.292 34.3472 100.527 35.2534 99.634 36.1164C96.9986 38.4896 93.5981 39.9567 89.22 39.9567C79.6562 39.9567 74.5554 32.4486 74.5554 24.8543C74.5129 24.8111 74.5129 24.7248 74.5129 24.6385ZM80.2937 24.768C80.2937 27.2707 80.5063 30.6795 81.909 33.8726C83.3117 37.1088 85.607 39.4821 89.305 39.5252C93.5131 39.4821 96.7861 38.0581 99.2939 35.8143C100.739 34.5198 101.547 33.2685 101.844 32.1466C102.057 30.9384 102.184 30.1185 102.184 29.5144C102.184 28.3925 101.972 27.357 101.462 26.2782C99.5915 22.5242 95.6809 21.4454 91.5578 21.4454C87.3922 21.4454 83.0141 22.5242 80.3788 22.9988C80.2938 23.5598 80.2937 24.1639 80.2937 24.768ZM87.1372 21.2297C90.9627 20.5824 94.7883 19.8489 97.8062 19.3311C96.8711 14.714 94.5332 10.3127 89.22 10.3127C82.7591 10.3127 80.6338 17.001 80.2937 22.481C82.3765 22.0927 84.7144 21.7043 87.1372 21.2297Z" fill="#A58276"/>
<path d="M116.976 22.2219C114.299 21.7041 112.513 20.1076 111.961 18.511C111.663 17.6912 111.493 16.9576 111.493 16.2672C111.493 15.7494 111.451 14.3686 112.683 12.6858C113.916 11.0029 116.041 9.83789 119.059 9.83789C126.243 9.83789 132.194 12.3837 132.746 19.6761C132.789 20.1507 132.831 20.7117 132.831 21.1863V31.154C132.831 35.3827 132.619 39.4388 135.849 39.4388V39.9134C129.813 39.9134 127.22 38.2737 127.22 32.5779C125.605 37.2381 122.12 39.9134 116.721 39.9566C116.594 39.9566 116.466 39.9566 116.381 39.9566C109.793 39.9566 106.137 36.634 106.137 31.154C106.137 25.5876 111.153 23.3007 116.976 22.2219ZM118.082 38.8347C123.14 38.8347 127.22 35.8573 127.22 27.6157V22.0925C121.78 22.0925 111.791 22.0493 111.791 31.5855C111.791 36.0731 113.661 38.8347 118.082 38.8347ZM112.428 18.4679C113.661 21.0137 116.254 21.963 118.889 21.963C121.355 21.661 123.65 21.6178 125.903 21.6178H127.22C127.093 15.1022 125.223 10.442 118.974 10.3125C115.361 10.3125 111.961 12.3406 111.961 16.4398C112.003 17.0871 112.131 17.7775 112.428 18.4679Z" fill="#A58276"/>
</g>
<defs>
<clipPath id="clip0_19_212">
<rect width="135.849" height="40" fill="white"/>
</clipPath>
</defs>
</svg>
